<svg version="1.1" id="Layer_1" xmlns="http://www.w3.org/2000/svg" xmlns:xlink="http://www.w3.org/1999/xlink" x="0px" y="0px"
	 width="100%" viewBox="0 0 500 69" enable-background="new 0 0 500 69" xml:space="preserve">
<path fill="#FDFDFD" opacity="1.000000" stroke="none" 
	d="
M480.000519,70.000000 
	C320.000397,70.000000 160.500443,70.000000 1.000360,70.000000 
	C1.000240,47.000164 1.000240,24.000332 1.000120,1.000373 
	C167.666458,1.000248 334.332916,1.000248 500.999542,1.000124 
	C500.999695,23.999788 500.999695,46.999577 500.999847,69.999680 
	C494.166901,70.000000 487.333771,70.000000 480.000519,70.000000 
M30.104136,40.688370 
	C31.320339,42.404892 32.536541,44.121414 33.820587,45.933689 
	C34.599461,44.337772 35.379723,42.739010 36.183022,41.093048 
	C34.657951,40.693764 33.329731,40.346016 31.989374,39.306438 
	C31.624662,38.700939 31.259951,38.095436 30.895241,37.489937 
	C30.597960,38.327755 30.300676,39.165569 30.104136,40.688370 
M43.015114,45.123745 
	C43.256378,42.600945 43.497643,40.078144 43.738907,37.555340 
	C43.405506,37.513210 43.072102,37.471077 42.738701,37.428944 
	C41.648178,39.345695 40.557659,41.262447 39.613117,42.922619 
	C40.526241,44.097935 41.255939,45.037148 41.309940,46.053814 
	C40.064060,46.536713 38.818184,47.019615 37.572308,47.502518 
	C37.647808,47.680172 37.723312,47.857822 37.798813,48.035477 
	C39.834805,48.035477 41.870796,48.035477 44.799370,48.014549 
	C46.928196,48.014549 49.057022,48.014549 51.014065,48.014549 
	C53.281635,42.289356 53.529453,42.189941 61.615822,43.404953 
	C62.205616,44.896301 62.795406,46.387650 63.307785,47.683254 
	C66.024315,47.683254 68.407730,47.683254 71.176849,47.683254 
	C68.443047,39.424957 65.571068,31.655170 63.363670,23.700953 
	C62.251144,19.692026 59.664112,20.329798 56.892654,20.192095 
	C54.029419,20.049828 51.958733,20.301426 50.969093,23.762621 
	C48.830376,31.242605 46.198421,38.581566 43.395832,45.968018 
	C43.395832,45.968018 43.023762,45.948532 43.015114,45.123745 
M22.031572,48.856178 
	C22.723967,50.207474 23.416361,51.558765 24.108755,52.910061 
	C24.710957,52.920242 25.313158,52.930420 25.915359,52.940601 
	C26.261780,49.992805 26.608200,47.045013 27.236210,43.446056 
	C27.497219,41.413197 27.613840,39.348099 28.058554,37.356255 
	C28.533529,35.228878 29.318195,33.170647 30.324759,31.495808 
	C30.731964,31.431126 31.139170,31.366444 31.546375,31.301760 
	C31.050352,30.859697 30.554329,30.417637 30.028616,29.491766 
	C30.028616,29.491766 30.026001,29.007050 30.550873,28.950909 
	C30.751137,28.758446 30.951403,28.565983 31.151669,28.373518 
	C30.433880,28.249786 29.716093,28.126053 28.989605,27.488693 
	C28.990038,27.317459 28.990469,27.146225 28.700996,26.285027 
	C28.936136,23.743362 29.171276,21.201700 29.426910,18.438520 
	C28.714840,18.995106 27.473072,19.965729 26.013521,20.206423 
	C25.021280,20.167723 23.643837,19.705160 23.119667,20.181515 
	C22.130384,21.080559 21.632168,22.519957 20.232193,23.764353 
	C14.342262,21.453541 13.792903,22.010000 13.712543,28.933548 
	C13.697334,30.243845 12.147904,31.563019 11.236272,32.827549 
	C10.541141,33.791767 8.982903,34.844547 9.142962,35.558990 
	C9.430933,36.844391 10.842161,37.835049 11.558268,39.078876 
	C12.394152,40.530739 13.104519,42.081562 13.652841,43.664448 
	C14.156506,45.118420 13.932951,47.119144 14.861984,48.032497 
	C15.538251,48.697350 17.568964,47.984497 19.675175,47.982628 
	C20.356623,48.054382 21.038069,48.126141 22.031572,48.856178 
M321.115753,34.212639 
	C319.680359,29.322369 318.244934,24.432100 316.906433,19.871973 
	C313.281860,19.871973 310.215485,19.871973 307.312744,19.871973 
	C307.312744,29.138411 307.312744,38.039551 307.312744,47.089111 
	C309.396820,46.971527 311.138062,46.873283 313.521606,46.738804 
	C313.521606,41.600449 313.521606,36.854332 313.521606,32.108215 
	C313.870483,32.095867 314.219360,32.083519 314.568207,32.071175 
	C316.081360,37.044044 317.594482,42.016914 319.055115,46.817245 
	C321.649170,46.817245 323.774200,46.817245 325.957275,46.817245 
	C327.404541,41.920910 328.806335,37.178310 330.208160,32.435711 
	C330.562286,32.511700 330.916382,32.587688 331.270508,32.663673 
	C331.270508,37.413780 331.270508,42.163883 331.270508,46.736336 
	C333.746490,46.736336 335.840729,46.736336 337.876373,46.736336 
	C337.876373,37.588623 337.876373,28.711081 337.876373,19.676266 
	C334.598999,19.676266 331.641998,19.676266 328.432739,19.676266 
	C326.594147,25.782576 324.767090,31.850538 322.709412,38.684444 
	C322.024628,36.822941 321.682495,35.892921 321.115753,34.212639 
M291.322235,34.995087 
	C291.656067,34.150383 291.989899,33.305683 292.323700,32.460983 
	C292.567993,32.504303 292.812286,32.547623 293.056580,32.590942 
	C293.056580,37.290394 293.056580,41.989845 293.056580,46.672569 
	C295.660004,46.672569 297.866852,46.672569 300.010132,46.672569 
	C300.010132,37.561676 300.010132,28.782494 300.010132,19.758297 
	C296.723907,19.758297 293.621918,19.758297 290.396332,19.758297 
	C288.569214,25.819073 286.762482,31.812229 284.619629,38.920418 
	C282.413422,31.604731 280.603058,25.601593 278.859985,19.821709 
	C275.356110,19.821709 272.267059,19.821709 269.274872,19.821709 
	C269.274872,29.048855 269.274872,37.961369 269.274872,47.053093 
	C271.320953,46.957718 273.062561,46.876537 275.439636,46.765736 
	C275.439636,41.659000 275.439636,36.895641 275.439636,32.132282 
	C275.809235,32.096886 276.178802,32.061493 276.548401,32.026100 
	C278.058990,36.995026 279.569550,41.963955 281.056976,46.856659 
	C283.558411,46.856659 285.696655,46.856659 288.017334,46.856659 
	C289.063995,43.102654 290.086731,39.434532 291.322235,34.995087 
M480.840332,23.812468 
	C475.431549,17.161709 468.242920,20.291336 461.628784,19.416203 
	C461.628784,29.078209 461.628784,37.840195 461.628784,46.809708 
	C464.079163,46.809708 466.317719,46.809708 469.120514,46.809708 
	C469.120514,43.472248 469.120514,40.299736 469.120514,37.127224 
	C469.521179,36.989677 469.921814,36.852135 470.322479,36.714588 
	C471.985718,39.419205 473.144165,42.732693 475.458740,44.651665 
	C477.633331,46.454582 481.029022,46.784607 483.887451,47.762699 
	C484.089783,47.253853 484.292084,46.745007 484.494415,46.236156 
	C482.089752,42.578739 479.685089,38.921318 477.249603,35.216980 
	C480.881195,32.235470 482.769989,28.972284 480.840332,23.812468 
M78.428238,48.005939 
	C81.214455,48.388412 82.954201,47.745785 82.544586,44.357147 
	C82.302757,42.356552 82.500389,40.302837 82.500389,38.273010 
	C83.007004,38.159130 83.513618,38.045254 84.020226,37.931374 
	C85.689919,40.672276 86.843033,44.042320 89.184608,45.964939 
	C91.242386,47.654537 94.631096,47.723175 97.431984,48.507721 
	C97.583771,48.040146 97.735558,47.572567 97.887344,47.104992 
	C95.565712,43.524506 93.244080,39.944016 90.770157,36.128647 
	C94.583344,33.411633 96.160004,29.867252 94.626312,25.609072 
	C93.063026,21.268682 88.997063,20.788256 85.139793,20.519295 
	C81.882256,20.292154 78.596306,20.472513 74.984436,20.472513 
	C74.984436,29.129816 74.906662,37.264900 75.095512,45.393791 
	C75.116135,46.281570 76.672081,47.133686 78.428238,48.005939 
M347.270569,47.013752 
	C349.116516,45.726669 350.962463,44.439583 352.808441,43.152500 
	C352.584167,42.795586 352.359894,42.438675 352.135620,42.081764 
	C354.931793,42.081764 357.727966,42.081764 360.500946,42.081764 
	C361.198914,43.843586 361.839844,45.461449 362.394775,46.862240 
	C365.119507,46.862240 367.431274,46.862240 370.138855,46.862240 
	C367.340759,38.283363 364.743469,29.912666 361.770142,21.677746 
	C361.361084,20.544855 359.065674,19.422693 357.678040,19.463646 
	C355.335510,19.532782 351.468506,19.924385 350.947174,21.246719 
	C347.682831,29.526257 345.167297,38.101040 342.261932,47.013805 
	C344.072968,47.013805 345.226166,47.013805 347.270569,47.013752 
M394.321136,42.240215 
	C392.816986,39.917339 391.312805,37.594463 389.713165,35.124104 
	C393.522339,32.346664 395.198517,28.857597 393.588684,24.599051 
	C391.977936,20.338051 388.020630,19.771618 384.101868,19.625395 
	C380.827850,19.503227 377.545593,19.600330 374.206268,19.600330 
	C374.206268,28.901686 374.206268,37.788338 374.206268,46.750870 
	C376.679016,46.750870 378.914307,46.750870 381.713806,46.750870 
	C381.713806,43.355499 381.713806,40.220734 381.713806,35.908134 
	C386.895538,40.597637 387.269714,50.459110 396.949158,46.415424 
	C396.262939,45.280937 395.523926,44.059174 394.321136,42.240215 
M254.955154,25.644875 
	C254.954971,28.633841 254.999390,31.623663 254.942123,34.611534 
	C254.884171,37.634792 255.068390,41.006882 250.688034,41.062824 
	C246.353912,41.118176 246.276764,37.795116 246.221298,34.748844 
	C246.131470,29.814512 246.197128,24.877348 246.197128,19.860619 
	C243.497910,19.860619 241.295410,19.860619 238.898895,19.860619 
	C238.898895,25.347916 238.894852,30.488411 238.902969,35.628887 
	C238.904266,36.458530 238.907837,37.293816 238.998535,38.116772 
	C239.640228,43.938839 243.459610,47.098801 249.999603,47.246109 
	C256.911346,47.401798 261.523651,44.423702 261.942047,38.683533 
	C262.395599,32.461082 262.044830,26.180002 262.044830,19.874046 
	C259.518127,19.874046 257.320557,19.874046 254.955154,19.874046 
	C254.955154,21.724125 254.955154,23.213074 254.955154,25.644875 
M425.472656,47.010002 
	C428.574249,47.010002 431.675812,47.010002 434.958374,47.010002 
	C434.841125,44.587559 434.757172,42.853149 434.660370,40.853222 
	C430.585327,40.853222 427.002747,40.853222 423.324768,40.853222 
	C426.128876,33.253735 434.434357,28.772390 434.550873,19.770668 
	C427.261292,19.770668 420.684570,19.770668 414.088379,19.770668 
	C414.088379,21.771887 414.088379,23.493286 414.088379,25.641445 
	C417.666321,25.641445 420.908722,25.641445 424.451294,25.641445 
	C421.613800,33.406517 413.592926,37.911770 413.100189,47.010002 
	C417.236420,47.010002 420.867523,47.010002 425.472656,47.010002 
M447.840546,29.778597 
	C447.507385,28.489534 447.174194,27.200472 446.674896,25.268595 
	C450.199249,25.268595 452.928680,25.268595 455.676910,25.268595 
	C455.676910,23.153219 455.676910,21.536774 455.676910,19.815880 
	C450.232391,19.815880 444.999847,19.815880 439.766479,19.815880 
	C439.766479,29.050327 439.766479,37.937679 439.766479,46.627438 
	C445.357239,46.627438 450.590057,46.627438 455.672546,46.627438 
	C455.672546,44.614845 455.672546,42.998264 455.672546,40.919521 
	C452.728394,40.919521 449.985138,40.919521 447.184570,40.919521 
	C447.184570,39.032883 447.184570,37.616669 447.184570,35.803326 
	C449.811523,35.803326 452.237549,35.803326 454.879333,35.803326 
	C454.879333,33.668259 454.879333,31.933350 454.879333,29.839479 
	C452.703552,29.839479 450.740692,29.839479 447.840546,29.778597 
M205.231339,23.469650 
	C204.498749,22.434923 203.818970,20.554571 203.024872,20.504993 
	C198.442886,20.218916 193.833893,20.365467 189.348999,20.365467 
	C189.348999,29.995813 189.348999,38.898891 189.348999,47.671196 
	C194.818985,47.671196 199.910385,47.671196 204.999924,47.671196 
	C204.999924,45.715466 204.999924,44.099293 204.999924,42.214565 
	C202.207870,42.037193 199.610641,41.872196 196.872528,41.698246 
	C196.872528,40.059792 196.872528,38.680618 196.872528,37.105518 
	C199.598358,36.925560 202.020172,36.765667 204.532684,36.599792 
	C204.532684,34.588409 204.532684,32.996281 204.532684,31.149727 
	C203.009979,31.037386 201.654495,31.156794 200.446823,30.789757 
	C199.100586,30.380592 197.888763,29.529171 196.618423,28.870253 
	C197.956802,28.104767 199.274033,27.298878 200.639206,26.584633 
	C202.143539,25.797602 203.691910,25.094742 205.231339,23.469650 
M221.549210,47.246529 
	C229.011429,47.174286 232.794235,45.055191 233.812225,40.376892 
	C234.772751,35.962772 232.774933,33.331608 226.054520,29.834553 
	C224.604523,29.080030 223.368378,27.914503 222.033722,26.938290 
	C222.226135,26.357456 222.418549,25.776623 222.610947,25.195791 
	C225.673172,25.492680 228.735397,25.789568 231.938644,26.100130 
	C232.536896,24.505268 233.143860,22.887182 234.128464,20.262383 
	C229.719345,19.911633 225.972168,19.169754 222.301971,19.446905 
	C218.661942,19.721777 215.665436,21.714754 215.022095,25.811060 
	C214.372147,29.949360 216.183563,32.896645 219.777679,34.813980 
	C221.385254,35.671566 223.147842,36.263336 224.675995,37.234047 
	C225.388199,37.686447 225.709808,38.753784 226.208450,39.542393 
	C225.327850,40.094326 224.409531,41.164337 223.573547,41.103481 
	C220.787598,40.900665 218.031204,40.292206 215.260223,39.838676 
	C214.154968,46.101055 214.258255,46.246487 221.549210,47.246529 
M156.163925,27.016472 
	C160.850632,28.280880 159.189896,24.146191 160.519409,22.456726 
	C154.110107,18.941313 147.412384,19.374477 143.105850,23.383492 
	C138.873611,27.323345 137.582321,35.547588 140.251114,41.565273 
	C142.542892,46.732857 147.116638,48.841366 154.506683,48.137142 
	C159.960342,47.617439 160.509079,46.766201 159.362045,42.603394 
	C155.094910,41.567154 150.118301,41.796566 148.349960,39.526634 
	C146.565247,37.235668 147.218964,32.254929 148.184479,28.843161 
	C149.075562,25.694466 152.498779,25.748055 156.163925,27.016472 
M104.478905,26.740967 
	C105.232399,28.089890 106.574753,29.412617 106.636131,30.792328 
	C106.884750,36.381233 106.739388,41.987659 106.739388,47.616512 
	C109.530243,47.616512 111.717239,47.616512 114.363289,47.616512 
	C114.363289,40.484081 114.363289,33.748890 114.363289,27.041285 
	C116.762535,26.779633 118.697792,26.568583 120.607658,26.360300 
	C120.607658,24.269518 120.607658,22.525114 120.607658,20.741123 
	C113.598312,20.741123 106.910004,20.741123 100.132721,20.741123 
	C100.113022,23.759884 98.560997,27.224846 104.478905,26.740967 
M183.830353,43.671124 
	C180.429443,42.828468 177.028549,41.985817 173.030899,40.995312 
	C173.030899,34.585049 173.030899,27.712011 173.030899,20.653704 
	C170.442459,20.653704 168.377716,20.653704 166.065933,20.653704 
	C166.065933,29.805021 166.065933,38.662498 166.065933,47.998936 
	C171.250214,47.998936 176.198349,48.184067 181.110001,47.843288 
	C182.096588,47.774837 182.944473,45.707394 183.830353,43.671124 
M125.804306,42.396854 
	C125.804306,44.158455 125.804306,45.920059 125.804306,47.718952 
	C128.566742,47.718952 130.643982,47.718952 132.787628,47.718952 
	C132.787628,38.550159 132.787628,29.666578 132.787628,20.689796 
	C130.366821,20.689796 128.292587,20.689796 125.804161,20.689796 
	C125.804161,27.815094 125.804161,34.618206 125.804306,42.396854 
M400.988556,26.527897 
	C400.988556,33.289082 400.988556,40.050266 400.988556,46.658447 
	C403.810364,46.658447 406.041412,46.658447 408.346466,46.658447 
	C408.346466,38.000359 408.352386,29.679167 408.330597,21.358053 
	C408.329407,20.899433 408.098083,20.441414 407.929565,19.819542 
	C405.665955,19.819542 403.471710,19.819542 400.988556,19.819542 
	C400.988556,21.908602 400.988556,23.721020 400.988556,26.527897 
M36.802197,30.673599 
	C35.917850,29.512989 35.033504,28.352381 34.149155,27.191772 
	C33.335041,29.888048 31.947857,33.021141 36.802197,30.673599 
M31.817245,49.534008 
	C34.113693,52.794708 34.400185,52.800953 36.427704,49.652168 
	C34.982273,49.444511 33.530830,49.235989 31.817245,49.534008 
M39.922928,26.264376 
	C39.834305,26.123911 39.775181,25.922321 39.648315,25.861092 
	C39.533672,25.805759 39.336407,25.881578 39.190418,25.937969 
	C38.441387,26.227285 37.697144,26.528999 36.951229,26.826384 
	C37.490711,27.344879 38.030193,27.863375 38.569675,28.381872 
	C39.040672,27.855156 39.511665,27.328440 39.922928,26.264376 
M33.121395,22.269300 
	C32.575966,22.463072 32.030540,22.656843 31.485109,22.850613 
	C31.612484,23.130318 31.739859,23.410023 31.867233,23.689728 
	C32.429119,23.361660 32.991009,23.033590 33.121395,22.269300 
M40.504490,33.303516 
	C40.878754,32.875748 41.264183,32.456112 41.597572,31.998556 
	C41.616169,31.973034 41.204819,31.634239 40.993587,31.441257 
	C40.713684,31.922251 40.433784,32.403244 40.504490,33.303516 
M37.302719,33.420300 
	C37.010750,33.637775 36.718781,33.855247 36.426811,34.072720 
	C36.604317,34.257782 36.781822,34.442848 36.959328,34.627911 
	C37.189293,34.346142 37.419258,34.064373 37.302719,33.420300 
M29.747091,52.187099 
	C29.629610,52.026459 29.512129,51.865818 29.394648,51.705177 
	C29.418812,51.929039 29.442976,52.152897 29.747091,52.187099 
z"/>
<path fill="#040404" opacity="1.000000" stroke="none" 
	d="
M321.228088,34.587769 
	C321.682495,35.892921 322.024628,36.822941 322.709412,38.684444 
	C324.767090,31.850538 326.594147,25.782576 328.432739,19.676266 
	C331.641998,19.676266 334.598999,19.676266 337.876373,19.676266 
	C337.876373,28.711081 337.876373,37.588623 337.876373,46.736336 
	C335.840729,46.736336 333.746490,46.736336 331.270508,46.736336 
	C331.270508,42.163883 331.270508,37.413780 331.270508,32.663673 
	C330.916382,32.587688 330.562286,32.511700 330.208160,32.435711 
	C328.806335,37.178310 327.404541,41.920910 325.957275,46.817245 
	C323.774200,46.817245 321.649170,46.817245 319.055115,46.817245 
	C317.594482,42.016914 316.081360,37.044044 314.568207,32.071175 
	C314.219360,32.083519 313.870483,32.095867 313.521606,32.108215 
	C313.521606,36.854332 313.521606,41.600449 313.521606,46.738804 
	C311.138062,46.873283 309.396820,46.971527 307.312744,47.089111 
	C307.312744,38.039551 307.312744,29.138411 307.312744,19.871973 
	C310.215485,19.871973 313.281860,19.871973 316.906433,19.871973 
	C318.244934,24.432100 319.680359,29.322369 321.228088,34.587769 
z"/>
<path fill="#040404" opacity="1.000000" stroke="none" 
	d="
M291.215851,35.380749 
	C290.086731,39.434532 289.063995,43.102654 288.017334,46.856659 
	C285.696655,46.856659 283.558411,46.856659 281.056976,46.856659 
	C279.569550,41.963955 278.058990,36.995026 276.548401,32.026100 
	C276.178802,32.061493 275.809235,32.096886 275.439636,32.132282 
	C275.439636,36.895641 275.439636,41.659000 275.439636,46.765736 
	C273.062561,46.876537 271.320953,46.957718 269.274872,47.053093 
	C269.274872,37.961369 269.274872,29.048855 269.274872,19.821709 
	C272.267059,19.821709 275.356110,19.821709 278.859985,19.821709 
	C280.603058,25.601593 282.413422,31.604731 284.619629,38.920418 
	C286.762482,31.812229 288.569214,25.819073 290.396332,19.758297 
	C293.621918,19.758297 296.723907,19.758297 300.010132,19.758297 
	C300.010132,28.782494 300.010132,37.561676 300.010132,46.672569 
	C297.866852,46.672569 295.660004,46.672569 293.056580,46.672569 
	C293.056580,41.989845 293.056580,37.290394 293.056580,32.590942 
	C292.812286,32.547623 292.567993,32.504303 292.323700,32.460983 
	C291.989899,33.305683 291.656067,34.150383 291.215851,35.380749 
z"/>
<path fill="#0D0D0D" opacity="1.000000" stroke="none" 
	d="
M480.968109,24.174225 
	C482.769989,28.972284 480.881195,32.235470 477.249603,35.216980 
	C479.685089,38.921318 482.089752,42.578739 484.494415,46.236156 
	C484.292084,46.745007 484.089783,47.253853 483.887451,47.762699 
	C481.029022,46.784607 477.633331,46.454582 475.458740,44.651665 
	C473.144165,42.732693 471.985718,39.419205 470.322479,36.714588 
	C469.921814,36.852135 469.521179,36.989677 469.120514,37.127224 
	C469.120514,40.299736 469.120514,43.472248 469.120514,46.809708 
	C466.317719,46.809708 464.079163,46.809708 461.628784,46.809708 
	C461.628784,37.840195 461.628784,29.078209 461.628784,19.416203 
	C468.242920,20.291336 475.431549,17.161709 480.968109,24.174225 
M468.940063,29.494059 
	C470.121765,29.951572 471.455444,30.959681 472.436188,30.689003 
	C473.194214,30.479788 474.230377,28.146704 473.884521,27.669064 
	C472.929596,26.350346 471.314941,25.509386 469.275116,23.957584 
	C469.099518,26.377108 469.018158,27.498558 468.940063,29.494059 
z"/>
<path fill="#F3603D" opacity="1.000000" stroke="none" 
	d="
M77.972076,48.004143 
	C76.672081,47.133686 75.116135,46.281570 75.095512,45.393791 
	C74.906662,37.264900 74.984436,29.129816 74.984436,20.472513 
	C78.596306,20.472513 81.882256,20.292154 85.139793,20.519295 
	C88.997063,20.788256 93.063026,21.268682 94.626312,25.609072 
	C96.160004,29.867252 94.583344,33.411633 90.770157,36.128647 
	C93.244080,39.944016 95.565712,43.524506 97.887344,47.104992 
	C97.735558,47.572567 97.583771,48.040146 97.431984,48.507721 
	C94.631096,47.723175 91.242386,47.654537 89.184608,45.964939 
	C86.843033,44.042320 85.689919,40.672276 84.020226,37.931374 
	C83.513618,38.045254 83.007004,38.159130 82.500389,38.273010 
	C82.500389,40.302837 82.302757,42.356552 82.544586,44.357147 
	C82.954201,47.745785 81.214455,48.388412 77.972076,48.004143 
M84.321472,32.228146 
	C85.401833,30.942438 86.482201,29.656729 87.562561,28.371023 
	C86.149956,27.427832 84.737358,26.484638 83.324753,25.541447 
	C82.857033,25.912481 82.389313,26.283516 81.921593,26.654549 
	C82.451370,28.502792 82.981140,30.351036 84.321472,32.228146 
z"/>
<path fill="#090909" opacity="1.000000" stroke="none" 
	d="
M346.824951,47.013779 
	C345.226166,47.013805 344.072968,47.013805 342.261932,47.013805 
	C345.167297,38.101040 347.682831,29.526257 350.947174,21.246719 
	C351.468506,19.924385 355.335510,19.532782 357.678040,19.463646 
	C359.065674,19.422693 361.361084,20.544855 361.770142,21.677746 
	C364.743469,29.912666 367.340759,38.283363 370.138855,46.862240 
	C367.431274,46.862240 365.119507,46.862240 362.394775,46.862240 
	C361.839844,45.461449 361.198914,43.843586 360.500946,42.081764 
	C357.727966,42.081764 354.931793,42.081764 352.135620,42.081764 
	C352.359894,42.438675 352.584167,42.795586 352.808441,43.152500 
	C350.962463,44.439583 349.116516,45.726669 346.824951,47.013779 
M354.586060,35.838482 
	C356.004425,35.838482 357.422791,35.838482 359.251221,35.838482 
	C358.271942,32.098972 357.447998,28.952642 356.624084,25.806314 
	C356.312988,25.805344 356.001892,25.804371 355.690796,25.803398 
	C355.068207,29.008533 354.445587,32.213669 354.586060,35.838482 
z"/>
<path fill="#F3623F" opacity="1.000000" stroke="none" 
	d="
M43.768242,45.978214 
	C46.198421,38.581566 48.830376,31.242605 50.969093,23.762621 
	C51.958733,20.301426 54.029419,20.049828 56.892654,20.192095 
	C59.664112,20.329798 62.251144,19.692026 63.363670,23.700953 
	C65.571068,31.655170 68.443047,39.424957 71.176849,47.683254 
	C68.407730,47.683254 66.024315,47.683254 63.307785,47.683254 
	C62.795406,46.387650 62.205616,44.896301 61.615242,43.405319 
	C53.529453,42.189941 53.281635,42.289356 51.014065,48.014549 
	C49.057022,48.014549 46.928196,48.014549 44.240639,47.693146 
	C43.710686,46.907234 43.739464,46.442726 43.768242,45.978214 
M55.487938,32.215115 
	C55.262180,33.594978 55.036423,34.974842 54.727901,36.860561 
	C56.809273,36.767197 58.302631,36.700211 60.166157,36.616619 
	C59.226185,32.971264 58.439003,29.918459 57.317448,25.568911 
	C56.564083,28.369484 56.149281,29.911467 55.487938,32.215115 
z"/>
<path fill="#050505" opacity="1.000000" stroke="none" 
	d="
M394.553040,42.538815 
	C395.523926,44.059174 396.262939,45.280937 396.949158,46.415424 
	C387.269714,50.459110 386.895538,40.597637 381.713806,35.908134 
	C381.713806,40.220734 381.713806,43.355499 381.713806,46.750870 
	C378.914307,46.750870 376.679016,46.750870 374.206268,46.750870 
	C374.206268,37.788338 374.206268,28.901686 374.206268,19.600330 
	C377.545593,19.600330 380.827850,19.503227 384.101868,19.625395 
	C388.020630,19.771618 391.977936,20.338051 393.588684,24.599051 
	C395.198517,28.857597 393.522339,32.346664 389.713165,35.124104 
	C391.312805,37.594463 392.816986,39.917339 394.553040,42.538815 
M383.228119,31.365093 
	C384.378540,30.074211 385.528961,28.783329 386.679382,27.492441 
	C385.159058,26.526915 383.638733,25.561390 382.118408,24.595863 
	C381.691559,25.001841 381.264679,25.407820 380.837830,25.813797 
	C381.389404,27.677486 381.941010,29.541174 383.228119,31.365093 
z"/>
<path fill="#030303" opacity="1.000000" stroke="none" 
	d="
M254.955154,25.173449 
	C254.955154,23.213074 254.955154,21.724125 254.955154,19.874046 
	C257.320557,19.874046 259.518127,19.874046 262.044830,19.874046 
	C262.044830,26.180002 262.395599,32.461082 261.942047,38.683533 
	C261.523651,44.423702 256.911346,47.401798 249.999603,47.246109 
	C243.459610,47.098801 239.640228,43.938839 238.998535,38.116772 
	C238.907837,37.293816 238.904266,36.458530 238.902969,35.628887 
	C238.894852,30.488411 238.898895,25.347916 238.898895,19.860619 
	C241.295410,19.860619 243.497910,19.860619 246.197128,19.860619 
	C246.197128,24.877348 246.131470,29.814512 246.221298,34.748844 
	C246.276764,37.795116 246.353912,41.118176 250.688034,41.062824 
	C255.068390,41.006882 254.884171,37.634792 254.942123,34.611534 
	C254.999390,31.623663 254.954971,28.633841 254.955154,25.173449 
z"/>
<path fill="#070707" opacity="1.000000" stroke="none" 
	d="
M424.985657,47.010002 
	C420.867523,47.010002 417.236420,47.010002 413.100189,47.010002 
	C413.592926,37.911770 421.613800,33.406517 424.451294,25.641445 
	C420.908722,25.641445 417.666321,25.641445 414.088379,25.641445 
	C414.088379,23.493286 414.088379,21.771887 414.088379,19.770668 
	C420.684570,19.770668 427.261292,19.770668 434.550873,19.770668 
	C434.434357,28.772390 426.128876,33.253735 423.324768,40.853222 
	C427.002747,40.853222 430.585327,40.853222 434.660370,40.853222 
	C434.757172,42.853149 434.841125,44.587559 434.958374,47.010002 
	C431.675812,47.010002 428.574249,47.010002 424.985657,47.010002 
z"/>
<path fill="#0D0D0D" opacity="1.000000" stroke="none" 
	d="
M448.309204,29.809038 
	C450.740692,29.839479 452.703552,29.839479 454.879333,29.839479 
	C454.879333,31.933350 454.879333,33.668259 454.879333,35.803326 
	C452.237549,35.803326 449.811523,35.803326 447.184570,35.803326 
	C447.184570,37.616669 447.184570,39.032883 447.184570,40.919521 
	C449.985138,40.919521 452.728394,40.919521 455.672546,40.919521 
	C455.672546,42.998264 455.672546,44.614845 455.672546,46.627438 
	C450.590057,46.627438 445.357239,46.627438 439.766479,46.627438 
	C439.766479,37.937679 439.766479,29.050327 439.766479,19.815880 
	C444.999847,19.815880 450.232391,19.815880 455.676910,19.815880 
	C455.676910,21.536774 455.676910,23.153219 455.676910,25.268595 
	C452.928680,25.268595 450.199249,25.268595 446.674896,25.268595 
	C447.174194,27.200472 447.507385,28.489534 448.309204,29.809038 
z"/>
<path fill="#F3613F" opacity="1.000000" stroke="none" 
	d="
M205.226212,23.912432 
	C203.691910,25.094742 202.143539,25.797602 200.639206,26.584633 
	C199.274033,27.298878 197.956802,28.104767 196.618423,28.870255 
	C197.888763,29.529171 199.100586,30.380592 200.446823,30.789757 
	C201.654495,31.156794 203.009979,31.037386 204.532684,31.149727 
	C204.532684,32.996281 204.532684,34.588409 204.532684,36.599792 
	C202.020172,36.765667 199.598358,36.925560 196.872528,37.105518 
	C196.872528,38.680618 196.872528,40.059792 196.872528,41.698246 
	C199.610641,41.872196 202.207870,42.037193 204.999924,42.214565 
	C204.999924,44.099293 204.999924,45.715466 204.999924,47.671196 
	C199.910385,47.671196 194.818985,47.671196 189.348999,47.671196 
	C189.348999,38.898891 189.348999,29.995813 189.348999,20.365467 
	C193.833893,20.365467 198.442886,20.218916 203.024872,20.504993 
	C203.818970,20.554571 204.498749,22.434923 205.226212,23.912432 
z"/>
<path fill="#0A0A0A" opacity="1.000000" stroke="none" 
	d="
M221.093216,47.220238 
	C214.258255,46.246487 214.154968,46.101055 215.260223,39.838676 
	C218.031204,40.292206 220.787598,40.900665 223.573547,41.103481 
	C224.409531,41.164337 225.327850,40.094326 226.208466,39.542393 
	C225.709808,38.753784 225.388199,37.686447 224.675995,37.234047 
	C223.147842,36.263336 221.385254,35.671566 219.777679,34.813980 
	C216.183563,32.896645 214.372147,29.949360 215.022095,25.811060 
	C215.665436,21.714754 218.661942,19.721777 222.301971,19.446905 
	C225.972168,19.169754 229.719345,19.911633 234.128464,20.262383 
	C233.143860,22.887182 232.536896,24.505268 231.938644,26.100130 
	C228.735397,25.789568 225.673172,25.492680 222.610947,25.195791 
	C222.418549,25.776623 222.226135,26.357456 222.033722,26.938290 
	C223.368378,27.914503 224.604523,29.080030 226.054520,29.834553 
	C232.774933,33.331608 234.772751,35.962772 233.812225,40.376892 
	C232.794235,45.055191 229.011429,47.174286 221.093216,47.220238 
z"/>
<path fill="#F46341" opacity="1.000000" stroke="none" 
	d="
M155.803680,26.921604 
	C152.498779,25.748055 149.075562,25.694466 148.184479,28.843161 
	C147.218964,32.254929 146.565247,37.235668 148.349960,39.526634 
	C150.118301,41.796566 155.094910,41.567154 159.362045,42.603394 
	C160.509079,46.766201 159.960342,47.617439 154.506683,48.137142 
	C147.116638,48.841366 142.542892,46.732857 140.251114,41.565273 
	C137.582321,35.547588 138.873611,27.323345 143.105850,23.383492 
	C147.412384,19.374477 154.110107,18.941313 160.519409,22.456726 
	C159.189896,24.146191 160.850632,28.280880 155.803680,26.921604 
z"/>
<path fill="#F46542" opacity="1.000000" stroke="none" 
	d="
M104.034653,26.732803 
	C98.560997,27.224846 100.113022,23.759884 100.132721,20.741123 
	C106.910004,20.741123 113.598312,20.741123 120.607658,20.741123 
	C120.607658,22.525114 120.607658,24.269518 120.607658,26.360300 
	C118.697792,26.568583 116.762535,26.779633 114.363289,27.041285 
	C114.363289,33.748890 114.363289,40.484081 114.363289,47.616512 
	C111.717239,47.616512 109.530243,47.616512 106.739388,47.616512 
	C106.739388,41.987659 106.884750,36.381233 106.636131,30.792328 
	C106.574753,29.412617 105.232399,28.089890 104.034653,26.732803 
z"/>
<path fill="#F35F3C" opacity="1.000000" stroke="none" 
	d="
M183.843323,44.116371 
	C182.944473,45.707394 182.096588,47.774837 181.110001,47.843288 
	C176.198349,48.184067 171.250214,47.998936 166.065933,47.998936 
	C166.065933,38.662498 166.065933,29.805021 166.065933,20.653704 
	C168.377716,20.653704 170.442459,20.653704 173.030899,20.653704 
	C173.030899,27.712011 173.030899,34.585049 173.030899,40.995312 
	C177.028549,41.985817 180.429443,42.828468 183.843323,44.116371 
z"/>
<path fill="#F35F3B" opacity="1.000000" stroke="none" 
	d="
M125.804230,41.909088 
	C125.804161,34.618206 125.804161,27.815094 125.804161,20.689796 
	C128.292587,20.689796 130.366821,20.689796 132.787628,20.689796 
	C132.787628,29.666578 132.787628,38.550159 132.787628,47.718952 
	C130.643982,47.718952 128.566742,47.718952 125.804306,47.718952 
	C125.804306,45.920059 125.804306,44.158455 125.804230,41.909088 
z"/>
<path fill="#F25C3D" opacity="1.000000" stroke="none" 
	d="
M18.995819,47.885872 
	C17.568964,47.984497 15.538251,48.697350 14.861984,48.032497 
	C13.932951,47.119144 14.156506,45.118420 13.652841,43.664448 
	C13.104519,42.081562 12.394152,40.530739 11.558268,39.078876 
	C10.842161,37.835049 9.430933,36.844391 9.142962,35.558990 
	C8.982903,34.844547 10.541141,33.791767 11.236272,32.827549 
	C12.147904,31.563019 13.697334,30.243845 13.712543,28.933548 
	C13.792903,22.010000 14.342262,21.453541 20.600531,24.166321 
	C21.261929,26.361507 21.554987,28.154722 21.679684,30.252647 
	C18.150539,33.903214 18.777819,37.382679 20.820099,41.098618 
	C19.982664,43.479397 19.489241,45.682632 18.995819,47.885872 
z"/>
<path fill="#000000" opacity="1.000000" stroke="none" 
	d="
M400.988556,26.030666 
	C400.988556,23.721020 400.988556,21.908602 400.988556,19.819542 
	C403.471710,19.819542 405.665955,19.819542 407.929565,19.819542 
	C408.098083,20.441414 408.329407,20.899433 408.330597,21.358053 
	C408.352386,29.679167 408.346466,38.000359 408.346466,46.658447 
	C406.041412,46.658447 403.810364,46.658447 400.988556,46.658447 
	C400.988556,40.050266 400.988556,33.289082 400.988556,26.030666 
z"/>
<path fill="#FEF2ED" opacity="1.000000" stroke="none" 
	d="
M21.164112,40.921078 
	C18.777819,37.382679 18.150539,33.903214 22.018696,30.147964 
	C23.726299,28.823006 24.926527,27.907440 26.484932,26.991779 
	C27.559042,26.986120 28.274971,26.980556 28.990902,26.974995 
	C28.990469,27.146225 28.990038,27.317459 29.108141,27.965237 
	C29.433184,28.714937 29.699625,28.903360 30.026001,29.007050 
	C30.026001,29.007050 30.028616,29.491766 30.021435,30.010544 
	C29.998728,30.713623 29.983202,30.897926 29.967674,31.082230 
	C29.318195,33.170647 28.533529,35.228878 28.058554,37.356255 
	C27.613840,39.348099 27.497219,41.413197 26.807167,43.619392 
	C25.247946,43.232304 24.117767,42.671886 22.776134,41.933834 
	C22.097822,41.477829 21.630966,41.199455 21.164112,40.921078 
z"/>
<path fill="#F4733F" opacity="1.000000" stroke="none" 
	d="
M26.126755,26.991875 
	C24.926527,27.907440 23.726299,28.823006 22.187057,29.843254 
	C21.554987,28.154722 21.261929,26.361507 20.949360,24.151531 
	C21.632168,22.519957 22.130384,21.080559 23.119667,20.181515 
	C23.643837,19.705160 25.021280,20.167723 26.084265,21.003433 
	C26.145592,23.530922 26.136175,25.261398 26.126755,26.991875 
z"/>
<path fill="#F57944" opacity="1.000000" stroke="none" 
	d="
M22.987591,42.111465 
	C24.117767,42.671886 25.247946,43.232304 26.666370,43.944969 
	C26.608200,47.045013 26.261780,49.992805 25.915359,52.940601 
	C25.313158,52.930420 24.710957,52.920242 24.108755,52.910061 
	C23.416361,51.558765 22.723967,50.207474 22.193525,48.276783 
	C22.566183,45.835415 22.776886,43.973438 22.987591,42.111465 
z"/>
<path fill="#F3683A" opacity="1.000000" stroke="none" 
	d="
M22.776134,41.933834 
	C22.776886,43.973438 22.566183,45.835415 22.037498,47.947643 
	C21.038069,48.126141 20.356623,48.054382 19.335497,47.934250 
	C19.489241,45.682632 19.982664,43.479397 20.820099,41.098618 
	C21.630966,41.199455 22.097822,41.477829 22.776134,41.933834 
z"/>
<path fill="#FFF9F4" opacity="1.000000" stroke="none" 
	d="
M41.985634,45.976364 
	C41.255939,45.037148 40.526241,44.097935 39.613117,42.922619 
	C40.557659,41.262447 41.648178,39.345695 42.738701,37.428944 
	C43.072102,37.471077 43.405506,37.513210 43.738907,37.555340 
	C43.497643,40.078144 43.256378,42.600945 42.759956,45.550800 
	C42.331745,45.977360 42.158688,45.976864 41.985634,45.976364 
z"/>
<path fill="#FFFAF6" opacity="1.000000" stroke="none" 
	d="
M26.484934,26.991779 
	C26.136175,25.261398 26.145592,23.530922 26.193157,21.368399 
	C27.473072,19.965729 28.714840,18.995106 29.426910,18.438520 
	C29.171276,21.201700 28.936136,23.743362 28.845949,26.630011 
	C28.274971,26.980556 27.559042,26.986120 26.484934,26.991779 
z"/>
<path fill="#FEF4EA" opacity="1.000000" stroke="none" 
	d="
M32.001511,39.998268 
	C33.329731,40.346016 34.657951,40.693764 36.183022,41.093048 
	C35.379723,42.739010 34.599461,44.337772 33.820587,45.933689 
	C32.536541,44.121414 31.320339,42.404892 30.386726,40.343464 
	C31.113380,39.998463 31.557446,39.998367 32.001511,39.998268 
z"/>
<path fill="#FFF9F4" opacity="1.000000" stroke="none" 
	d="
M36.676231,31.006805 
	C31.947857,33.021141 33.335041,29.888048 34.149155,27.191772 
	C35.033504,28.352381 35.917850,29.512989 36.676231,31.006805 
z"/>
<path fill="#FFF8F4" opacity="1.000000" stroke="none" 
	d="
M31.948317,49.280739 
	C33.530830,49.235989 34.982273,49.444511 36.427704,49.652168 
	C34.400185,52.800953 34.113693,52.794708 31.948317,49.280739 
z"/>
<path fill="#FEF4EA" opacity="1.000000" stroke="none" 
	d="
M41.647789,46.015091 
	C42.158688,45.976864 42.331745,45.977360 42.764282,45.963196 
	C43.023762,45.948532 43.395832,45.968018 43.582039,45.973114 
	C43.739464,46.442726 43.710686,46.907234 43.794350,47.703613 
	C41.870796,48.035477 39.834805,48.035477 37.798813,48.035477 
	C37.723312,47.857822 37.647808,47.680172 37.572308,47.502518 
	C38.818184,47.019615 40.064060,46.536713 41.647789,46.015091 
z"/>
<path fill="#FFF9F4" opacity="1.000000" stroke="none" 
	d="
M39.952797,26.533051 
	C39.511665,27.328440 39.040672,27.855156 38.569675,28.381872 
	C38.030193,27.863375 37.490711,27.344879 36.951229,26.826384 
	C37.697144,26.528999 38.441387,26.227285 39.190418,25.937969 
	C39.336407,25.881578 39.533672,25.805759 39.648315,25.861092 
	C39.775181,25.922321 39.834305,26.123911 39.952797,26.533051 
z"/>
<path fill="#FFF9F4" opacity="1.000000" stroke="none" 
	d="
M31.995441,39.652351 
	C31.557446,39.998367 31.113380,39.998463 30.336355,40.000969 
	C30.300676,39.165569 30.597960,38.327755 30.895241,37.489937 
	C31.259951,38.095436 31.624662,38.700939 31.995441,39.652351 
z"/>
<path fill="#FFFAF6" opacity="1.000000" stroke="none" 
	d="
M33.337143,22.487411 
	C32.991009,23.033590 32.429119,23.361660 31.867233,23.689728 
	C31.739859,23.410023 31.612484,23.130318 31.485111,22.850615 
	C32.030540,22.656843 32.575966,22.463072 33.337143,22.487411 
z"/>
<path fill="#FFF9F4" opacity="1.000000" stroke="none" 
	d="
M40.329185,33.093876 
	C40.433784,32.403244 40.713684,31.922251 40.993587,31.441257 
	C41.204819,31.634239 41.616169,31.973034 41.597572,31.998556 
	C41.264183,32.456112 40.878754,32.875748 40.329185,33.093876 
z"/>
<path fill="#FFF9F4" opacity="1.000000" stroke="none" 
	d="
M37.475971,33.601452 
	C37.419258,34.064373 37.189293,34.346142 36.959328,34.627911 
	C36.781822,34.442848 36.604317,34.257782 36.426811,34.072720 
	C36.718781,33.855247 37.010750,33.637775 37.475971,33.601452 
z"/>
<path fill="#FFF9F4" opacity="1.000000" stroke="none" 
	d="
M30.146217,31.289019 
	C29.983202,30.897926 29.998728,30.713623 30.036280,30.252449 
	C30.554329,30.417637 31.050352,30.859697 31.546375,31.301762 
	C31.139170,31.366444 30.731964,31.431126 30.146217,31.289019 
z"/>
<path fill="#FFF9F4" opacity="1.000000" stroke="none" 
	d="
M30.288437,28.978979 
	C29.699625,28.903360 29.433184,28.714937 29.112492,28.222050 
	C29.716093,28.126053 30.433880,28.249786 31.151669,28.373520 
	C30.951403,28.565983 30.751137,28.758446 30.288437,28.978979 
z"/>
<path fill="#FFF8F4" opacity="1.000000" stroke="none" 
	d="
M29.607115,52.281929 
	C29.442976,52.152897 29.418812,51.929039 29.394648,51.705177 
	C29.512129,51.865818 29.629610,52.026459 29.607115,52.281929 
z"/>
<path fill="#F1F1F1" opacity="1.000000" stroke="none" 
	d="
M468.938416,29.057034 
	C469.018158,27.498558 469.099518,26.377108 469.275116,23.957584 
	C471.314941,25.509386 472.929596,26.350346 473.884521,27.669064 
	C474.230377,28.146704 473.194214,30.479788 472.436188,30.689003 
	C471.455444,30.959681 470.121765,29.951572 468.938416,29.057034 
z"/>
<path fill="#FDE7E2" opacity="1.000000" stroke="none" 
	d="
M83.916199,32.213715 
	C82.981140,30.351036 82.451370,28.502792 81.921593,26.654549 
	C82.389313,26.283516 82.857033,25.912481 83.324753,25.541447 
	C84.737358,26.484638 86.149956,27.427832 87.562561,28.371021 
	C86.482201,29.656729 85.401833,30.942438 83.916199,32.213715 
z"/>
<path fill="#DFDFDF" opacity="1.000000" stroke="none" 
	d="
M354.204529,35.628643 
	C354.445587,32.213669 355.068207,29.008533 355.690796,25.803398 
	C356.001892,25.804371 356.312988,25.805344 356.624084,25.806314 
	C357.447998,28.952642 358.271942,32.098972 359.251221,35.838482 
	C357.422791,35.838482 356.004425,35.838482 354.204529,35.628643 
z"/>
<path fill="#FDEAE5" opacity="1.000000" stroke="none" 
	d="
M55.611210,31.834282 
	C56.149281,29.911467 56.564083,28.369484 57.317448,25.568911 
	C58.439003,29.918459 59.226185,32.971264 60.166157,36.616619 
	C58.302631,36.700211 56.809273,36.767197 54.727901,36.860561 
	C55.036423,34.974842 55.262180,33.594978 55.611210,31.834282 
z"/>
<path fill="#DCDCDC" opacity="1.000000" stroke="none" 
	d="
M382.860352,31.384979 
	C381.941010,29.541174 381.389404,27.677486 380.837830,25.813797 
	C381.264679,25.407820 381.691559,25.001841 382.118408,24.595863 
	C383.638733,25.561390 385.159058,26.526915 386.679382,27.492443 
	C385.528961,28.783329 384.378540,30.074211 382.860352,31.384979 
z"/>
</svg>