<?xml version="1.0" encoding="UTF-8"?>
<!DOCTYPE svg PUBLIC "-//W3C//DTD SVG 1.1//EN" "http://www.w3.org/Graphics/SVG/1.1/DTD/svg11.dtd">
<svg xmlns="http://www.w3.org/2000/svg" version="1.1" width="205px" height="50px" style="shape-rendering:geometricPrecision; text-rendering:geometricPrecision; image-rendering:optimizeQuality; fill-rule:evenodd; clip-rule:evenodd" xmlns:xlink="http://www.w3.org/1999/xlink">
<g><path style="opacity:0.771" fill="#faa28d" d="M 59.5,15.5 C 55.5,14.1667 51.5,14.1667 47.5,15.5C 49.0478,14.2057 51.0478,13.5391 53.5,13.5C 55.9522,13.5391 57.9522,14.2057 59.5,15.5 Z"/></g>
<g><path style="opacity:0.584" fill="#f9a997" d="M 110.5,20.5 C 112.265,19.5386 114.265,19.2053 116.5,19.5C 116.5,17.8333 116.5,16.1667 116.5,14.5C 109.833,14.5 103.167,14.5 96.5,14.5C 96.5,16.1667 96.5,17.8333 96.5,19.5C 98.7354,19.2053 100.735,19.5386 102.5,20.5C 100.167,20.5 97.8333,20.5 95.5,20.5C 95.5,18.1667 95.5,15.8333 95.5,13.5C 102.833,13.5 110.167,13.5 117.5,13.5C 117.5,15.8333 117.5,18.1667 117.5,20.5C 115.167,20.5 112.833,20.5 110.5,20.5 Z"/></g>
<g><path style="opacity:0.488" fill="#8c8c8c" d="M 159.5,14.5 C 164.975,13.5111 170.642,13.1778 176.5,13.5C 176.5,15.8333 176.5,18.1667 176.5,20.5C 173.5,20.5 170.5,20.5 167.5,20.5C 167.5,21.5 167.5,22.5 167.5,23.5C 170.385,23.1936 173.052,23.5269 175.5,24.5C 172.5,24.5 169.5,24.5 166.5,24.5C 166.5,22.8333 166.5,21.1667 166.5,19.5C 169.5,19.5 172.5,19.5 175.5,19.5C 175.5,17.8333 175.5,16.1667 175.5,14.5C 170.167,14.5 164.833,14.5 159.5,14.5 Z"/></g>
<g><path style="opacity:1" fill="#f56845" d="M 59.5,15.5 C 62.7316,23.9708 65.3982,32.6375 67.5,41.5C 64.5,41.5 61.5,41.5 58.5,41.5C 58.8435,37.8661 57.1768,36.1995 53.5,36.5C 49.8232,36.1995 48.1565,37.8661 48.5,41.5C 45.5,41.5 42.5,41.5 39.5,41.5C 41.9699,32.7579 44.6366,24.0912 47.5,15.5C 51.5,14.1667 55.5,14.1667 59.5,15.5 Z M 54.5,22.5 C 54.366,24.2915 54.6993,25.9582 55.5,27.5C 55.38,28.5862 54.7133,29.2528 53.5,29.5C 52.2867,29.2528 51.62,28.5862 51.5,27.5C 52.2341,26.2921 52.5674,24.9587 52.5,23.5C 53.1667,23.1667 53.8333,22.8333 54.5,22.5 Z"/></g>
<g><path style="opacity:0.26" fill="#fbc6ba" d="M 85.5,14.5 C 80.8333,14.5 76.1667,14.5 71.5,14.5C 71.5,23.5 71.5,32.5 71.5,41.5C 70.5064,32.3483 70.1731,23.015 70.5,13.5C 75.6946,13.1795 80.6946,13.5128 85.5,14.5 Z"/></g>
<g><path style="opacity:1" fill="#f56946" d="M 85.5,14.5 C 87.9032,14.393 89.7365,15.393 91,17.5C 92.4937,22.5256 91.3271,26.6923 87.5,30C 90.1667,33.6667 92.8333,37.3333 95.5,41C 92.1667,41.6667 88.8333,41.6667 85.5,41C 83.6667,37.8333 81.8333,34.6667 80,31.5C 79.5017,34.8168 79.335,38.1501 79.5,41.5C 76.8333,41.5 74.1667,41.5 71.5,41.5C 71.5,32.5 71.5,23.5 71.5,14.5C 76.1667,14.5 80.8333,14.5 85.5,14.5 Z M 82.5,20.5 C 83.741,23.2959 82.741,24.9626 79.5,25.5C 79.5,23.8333 79.5,22.1667 79.5,20.5C 80.5,20.5 81.5,20.5 82.5,20.5 Z"/></g>
<g><path style="opacity:1" fill="#f3623f" d="M 110.5,20.5 C 110.5,27.5 110.5,34.5 110.5,41.5C 107.833,41.5 105.167,41.5 102.5,41.5C 102.5,34.5 102.5,27.5 102.5,20.5C 100.735,19.5386 98.7354,19.2053 96.5,19.5C 96.5,17.8333 96.5,16.1667 96.5,14.5C 103.167,14.5 109.833,14.5 116.5,14.5C 116.5,16.1667 116.5,17.8333 116.5,19.5C 114.265,19.2053 112.265,19.5386 110.5,20.5 Z"/></g>
<g><path style="opacity:0.54" fill="#7c7c7c" d="M 128.5,14.5 C 126.167,14.5 123.833,14.5 121.5,14.5C 121.5,23.5 121.5,32.5 121.5,41.5C 120.506,32.3483 120.173,23.015 120.5,13.5C 123.385,13.1936 126.052,13.5269 128.5,14.5 Z"/></g>
<g><path style="opacity:1" fill="#020202" d="M 128.5,14.5 C 128.5,23.5 128.5,32.5 128.5,41.5C 126.167,41.5 123.833,41.5 121.5,41.5C 121.5,32.5 121.5,23.5 121.5,14.5C 123.833,14.5 126.167,14.5 128.5,14.5 Z"/></g>
<g><path style="opacity:1" fill="#1b1b1b" d="M 143.5,22.5 C 144.404,21.791 144.737,20.791 144.5,19.5C 140.833,19.5 137.167,19.5 133.5,19.5C 133.5,17.5 133.5,15.5 133.5,13.5C 140.5,13.5 147.5,13.5 154.5,13.5C 154.663,15.8568 154.497,18.1902 154,20.5C 150.5,25.3333 147,30.1667 143.5,35C 147.486,35.4988 151.486,35.6655 155.5,35.5C 155.5,37.5 155.5,39.5 155.5,41.5C 147.833,41.5 140.167,41.5 132.5,41.5C 132.34,39.8008 132.506,38.1341 133,36.5C 136.363,31.6496 139.863,26.9829 143.5,22.5 Z"/></g>
<g><path style="opacity:1" fill="#131313" d="M 159.5,14.5 C 164.833,14.5 170.167,14.5 175.5,14.5C 175.5,16.1667 175.5,17.8333 175.5,19.5C 172.5,19.5 169.5,19.5 166.5,19.5C 166.5,21.1667 166.5,22.8333 166.5,24.5C 169.5,24.5 172.5,24.5 175.5,24.5C 175.5,26.5 175.5,28.5 175.5,30.5C 172.833,30.5 170.167,30.5 167.5,30.5C 167.5,31.8333 167.5,33.1667 167.5,34.5C 170.187,34.3359 172.854,34.5026 175.5,35C 176.423,37.0408 176.756,39.2075 176.5,41.5C 170.833,41.5 165.167,41.5 159.5,41.5C 159.5,32.5 159.5,23.5 159.5,14.5 Z"/></g>
<g><path style="opacity:1" fill="#191919" d="M 199.5,28.5 C 197.576,28.7107 197.243,29.3774 198.5,30.5C 200.147,33.4735 202.147,36.1401 204.5,38.5C 204.5,39.5 204.5,40.5 204.5,41.5C 201.428,41.8174 198.428,41.4841 195.5,40.5C 194.169,37.1662 192.335,34.1662 190,31.5C 189.502,34.8168 189.335,38.1501 189.5,41.5C 186.833,41.5 184.167,41.5 181.5,41.5C 181.5,32.1667 181.5,22.8333 181.5,13.5C 187.262,13.1493 192.928,13.6493 198.5,15C 203.391,19.2518 203.725,23.7518 199.5,28.5 Z M 193.5,20.5 C 194.244,23.9496 192.91,25.6162 189.5,25.5C 189.5,23.8333 189.5,22.1667 189.5,20.5C 190.833,20.5 192.167,20.5 193.5,20.5 Z"/></g>
<g><path style="opacity:1" fill="#f77d4f" d="M 21.5,13.5 C 21.9086,16.8555 21.2419,19.8555 19.5,22.5C 17.8058,23.5274 16.4725,24.8608 15.5,26.5C 15.7471,23.0613 15.4137,19.728 14.5,16.5C 17.4701,16.2542 18.8034,14.5876 18.5,11.5C 20.1788,11.2852 21.1788,11.9519 21.5,13.5 Z"/></g>
<g><path style="opacity:1" fill="#f56d4d" d="M 14.5,16.5 C 15.4137,19.728 15.7471,23.0613 15.5,26.5C 15.2776,30.0559 16.6109,32.7226 19.5,34.5C 21.2018,36.8002 21.8685,39.4669 21.5,42.5C 21.1788,44.0481 20.1788,44.7148 18.5,44.5C 18.0408,40.1798 16.2075,39.5132 13,42.5C 8.53065,40.4259 7.19732,37.0925 9,32.5C 7.98873,31.6634 6.82207,31.33 5.5,31.5C 5.5,29.1667 5.5,26.8333 5.5,24.5C 9.38946,24.3574 10.3895,22.5241 8.5,19C 9.32045,16.8462 10.8204,15.3462 13,14.5C 13.7172,15.0442 14.2172,15.7109 14.5,16.5 Z"/></g>
<g><path style="opacity:0.487" fill="#898989" d="M 133.5,19.5 C 137.167,19.5 140.833,19.5 144.5,19.5C 144.737,20.791 144.404,21.791 143.5,22.5C 140.452,20.8813 137.119,19.8813 133.5,19.5 Z"/></g>
<g><path style="opacity:0.42" fill="#fbbbac" d="M 54.5,22.5 C 53.8333,22.8333 53.1667,23.1667 52.5,23.5C 52.238,22.0222 52.5713,20.6888 53.5,19.5C 54.3857,20.325 54.719,21.325 54.5,22.5 Z"/></g>
<g><path style="opacity:0.164" fill="#fcddd5" d="M 82.5,20.5 C 81.5,20.5 80.5,20.5 79.5,20.5C 79.5,22.1667 79.5,23.8333 79.5,25.5C 78.5386,23.7354 78.2053,21.7354 78.5,19.5C 80.099,19.2322 81.4324,19.5655 82.5,20.5 Z"/></g>
<g><path style="opacity:0.655" fill="#747474" d="M 193.5,20.5 C 192.167,20.5 190.833,20.5 189.5,20.5C 189.5,22.1667 189.5,23.8333 189.5,25.5C 188.539,23.7354 188.205,21.7354 188.5,19.5C 190.415,19.2155 192.081,19.5489 193.5,20.5 Z"/></g>
<g><path style="opacity:0.816" fill="#fdc89c" d="M 21.5,42.5 C 21.8685,39.4669 21.2018,36.8002 19.5,34.5C 20.5,34.5 21.5,34.5 22.5,34.5C 22.5,33.5 22.5,32.5 22.5,31.5C 22.5,25.5 22.5,19.5 22.5,13.5C 22.8656,12.3054 23.699,11.6387 25,11.5C 27.8464,13.4595 30.8464,15.1262 34,16.5C 34.1129,18.9739 35.1129,20.9739 37,22.5C 38.9821,28.4208 38.8154,34.2542 36.5,40C 33.1368,42.6355 29.3034,44.1355 25,44.5C 23.5657,44.1382 22.3991,43.4715 21.5,42.5 Z M 23.5,21.5 C 25.288,21.2148 26.9547,21.5481 28.5,22.5C 27.011,22.5331 25.6776,23.0331 24.5,24C 26.6036,24.7908 27.937,26.2908 28.5,28.5C 29.4817,23.2979 30.6483,23.2979 32,28.5C 34.7603,25.7798 36.5937,26.4464 37.5,30.5C 35.6247,35.6231 33.958,35.6231 32.5,30.5C 29.6724,31.9957 28.0057,34.329 27.5,37.5C 28.2739,38.7112 29.1072,38.7112 30,37.5C 32.0422,39.5097 31.7089,41.1764 29,42.5C 28.6924,41.6919 28.1924,41.0253 27.5,40.5C 26.6667,41.5 25.8333,42.5 25,43.5C 23.4431,40.7055 23.1098,37.7055 24,34.5C 25.1353,34.273 26.302,33.9396 27.5,33.5C 26.1667,32.5 26.1667,31.5 27.5,30.5C 27.1667,30.1667 26.8333,29.8333 26.5,29.5C 25.8333,30.1667 25.1667,30.8333 24.5,31.5C 23.513,28.2317 23.1796,24.8984 23.5,21.5 Z M 29.5,15.5 C 32.7899,16.6562 33.2899,18.6562 31,21.5C 29.6814,19.7505 29.1814,17.7505 29.5,15.5 Z M 24.5,13.5 C 26.045,14.2297 26.8784,15.563 27,17.5C 27.6543,16.3044 28.1543,16.3044 28.5,17.5C 26.313,21.3756 24.6464,21.0423 23.5,16.5C 23.685,15.4163 24.0183,14.4163 24.5,13.5 Z M 32.5,22.5 C 33.5,22.5 34.5,22.5 35.5,22.5C 35.1927,25.962 34.1927,25.962 32.5,22.5 Z M 30.5,34.5 C 31.7206,35.0283 32.8873,35.695 34,36.5C 34.3333,36.1667 34.6667,35.8333 35,35.5C 35.7828,37.3185 35.2828,38.6518 33.5,39.5C 32.0476,38.0603 31.0476,36.3936 30.5,34.5 Z"/></g>
<g><path style="opacity:0.25" fill="#fde3d7" d="M 21.5,13.5 C 21.8333,13.5 22.1667,13.5 22.5,13.5C 22.5,19.5 22.5,25.5 22.5,31.5C 22.11,28.2033 21.11,25.2033 19.5,22.5C 21.2419,19.8555 21.9086,16.8555 21.5,13.5 Z"/></g>
<g><path style="opacity:0.251" fill="#fbc2b4" d="M 51.5,27.5 C 51.62,28.5862 52.2867,29.2528 53.5,29.5C 54.7133,29.2528 55.38,28.5862 55.5,27.5C 56.404,28.209 56.7373,29.209 56.5,30.5C 54.5,30.5 52.5,30.5 50.5,30.5C 50.2627,29.209 50.596,28.209 51.5,27.5 Z"/></g>
<g><path style="opacity:0.114" fill="#c6c6c6" d="M 199.5,28.5 C 199.167,29.1667 198.833,29.8333 198.5,30.5C 197.243,29.3774 197.576,28.7107 199.5,28.5 Z"/></g>
</svg>
