<?xml version="1.0" standalone="no"?>
<!DOCTYPE svg PUBLIC "-//W3C//DTD SVG 20010904//EN"
 "http://www.w3.org/TR/2001/REC-SVG-20010904/DTD/svg10.dtd">
<svg version="1.0" xmlns="http://www.w3.org/2000/svg"
 width="500.000000pt" height="500.000000pt" viewBox="0 0 500.000000 500.000000"
 preserveAspectRatio="xMidYMid meet">
<metadata>
Created by potrace 1.16, written by Peter Selinger 2001-2019
</metadata>
<g transform="translate(0.000000,500.000000) scale(0.100000,-0.100000)"
fill="#000000" stroke="none">
<path d="M2184 2796 c-34 -15 -44 -33 -44 -75 0 -30 27 -59 78 -85 44 -23 42
-46 -4 -46 -19 0 -44 5 -55 10 -17 10 -19 7 -19 -24 0 -39 11 -46 75 -46 58 0
91 16 106 52 19 46 2 78 -59 111 -28 16 -52 33 -52 38 0 17 31 22 65 12 32
-10 34 -9 44 17 9 26 7 29 -21 39 -41 14 -76 13 -114 -3z"/>
<path d="M3458 2670 l-46 -140 43 0 c38 0 44 3 47 23 3 19 10 22 49 25 43 3
47 1 53 -23 6 -22 12 -25 47 -25 29 0 40 4 37 13 -3 6 -24 69 -47 140 l-43
127 -47 0 -46 0 -47 -140z"/>
<path d="M2380 2694 c0 -103 1 -106 29 -135 26 -25 37 -29 86 -29 49 0 60 4
86 29 28 29 29 32 29 135 l0 106 -35 0 -35 0 0 -93 c0 -99 -7 -117 -47 -117
-33 0 -43 29 -43 124 l0 86 -35 0 -35 0 0 -106z"/>
<path d="M2680 2665 l0 -135 36 0 37 0 -5 93 c-6 98 -1 96 32 -20 21 -72 21
-73 55 -73 34 0 34 1 55 73 33 116 38 118 32 20 l-5 -93 37 0 36 0 0 135 0
135 -48 0 -48 0 -29 -92 -28 -93 -29 93 -29 92 -50 0 -49 0 0 -135z"/>
<path d="M3060 2665 l0 -135 36 0 37 0 -5 93 c-6 98 -1 96 32 -20 21 -72 21
-73 55 -73 34 0 34 1 55 73 33 116 38 118 32 20 l-5 -93 37 0 36 0 0 135 0
135 -48 0 -48 0 -29 -92 -28 -93 -29 93 -29 92 -50 0 -49 0 0 -135z"/>
<path d="M3730 2665 l0 -135 35 0 35 0 0 50 c0 65 17 65 52 0 26 -47 30 -50
68 -50 22 0 40 2 40 5 0 3 -16 30 -36 59 l-36 54 21 21 c31 31 28 84 -5 110
-22 17 -41 21 -100 21 l-74 0 0 -135z"/>
<path d="M4000 2665 l0 -135 35 0 35 0 0 135 0 135 -35 0 -35 0 0 -135z"/>
<path d="M4130 2775 c0 -24 3 -25 55 -25 30 0 55 -2 55 -5 0 -3 -27 -43 -60
-89 -33 -47 -60 -94 -60 -105 0 -20 5 -21 110 -21 l110 0 0 30 c0 29 -1 29
-61 32 l-60 3 60 85 c85 119 85 120 -44 120 l-105 0 0 -25z"/>
<path d="M4380 2665 l0 -135 85 0 85 0 0 30 c0 29 -2 30 -45 30 -41 0 -45 2
-45 25 0 23 4 25 40 25 38 0 40 2 40 30 0 28 -2 30 -40 30 -36 0 -40 3 -40 25
0 23 4 25 45 25 41 0 45 2 45 25 0 25 -1 25 -85 25 l-85 0 0 -135z"/>
<path d="M4600 2665 l0 -135 40 0 40 0 0 50 c0 28 4 50 9 50 6 0 22 -22 38
-50 27 -48 30 -50 71 -50 l43 0 -40 58 -40 59 22 21 c30 30 29 88 -2 113 -18
15 -40 19 -102 19 l-79 0 0 -135z"/>
<path d="M475 2668 c-21 -68 -40 -129 -43 -135 -3 -9 7 -13 31 -13 30 0 37 4
46 30 9 27 14 30 56 30 43 0 46 -2 52 -30 5 -27 9 -30 44 -30 l38 0 -46 135
-45 135 -47 0 -47 0 -39 -122z"/>
<path d="M740 2655 l0 -135 35 0 35 0 0 50 c0 66 20 66 57 0 26 -46 31 -50 66
-50 l38 0 -41 60 -40 59 25 25 c26 26 29 36 19 74 -10 34 -54 52 -129 52 l-65
0 0 -135z"/>
<path d="M990 2765 c0 -22 4 -25 35 -25 l35 0 0 -110 0 -110 35 0 35 0 0 110
0 110 30 0 c25 0 30 4 30 25 l0 25 -100 0 -100 0 0 -25z"/>
<path d="M1250 2655 l0 -135 35 0 35 0 0 135 0 135 -35 0 -35 0 0 -135z"/>
<path d="M1431 2764 c-39 -32 -55 -88 -42 -144 17 -76 74 -111 156 -96 30 6
35 11 35 36 0 28 -1 28 -34 18 -64 -20 -106 30 -92 106 9 48 28 60 80 53 39
-6 44 -4 50 15 7 29 -8 38 -71 38 -41 0 -58 -5 -82 -26z"/>
<path d="M1650 2655 l0 -135 85 0 85 0 0 30 c0 29 -1 30 -50 30 l-50 0 0 105
0 105 -35 0 -35 0 0 -135z"/>
<path d="M1880 2655 l0 -135 80 0 80 0 0 30 c0 29 -2 30 -45 30 -43 0 -45 1
-45 30 0 28 2 30 40 30 36 0 40 3 40 25 0 23 -4 25 -40 25 -36 0 -40 3 -40 25
0 23 4 25 45 25 41 0 45 2 45 25 0 25 -1 25 -80 25 l-80 0 0 -135z"/>
<path d="M137 2762 c-9 -10 -13 -27 -10 -44 4 -20 0 -30 -16 -40 -26 -16 -28
-55 -2 -63 25 -7 34 -31 21 -55 -13 -24 11 -50 39 -43 17 4 18 15 18 122 0
101 -3 120 -18 129 -13 8 -20 7 -32 -6z"/>
</g>
</svg>
